<?xml version="1.0" encoding="UTF-8" standalone="no"?>
<!DOCTYPE svg PUBLIC "-//W3C//DTD SVG 1.1//EN" "http://www.w3.org/Graphics/SVG/1.1/DTD/svg11.dtd">
<svg version="1.1" xmlns="http://www.w3.org/2000/svg" xmlns:xlink="http://www.w3.org/1999/xlink" preserveAspectRatio="xMidYMid meet" viewBox="239.82 31.127952591820794 140.23000000000002 176.80204740817922" width="140.23" height="176.8"><defs><path d="M335.52 64.25L335.52 207.93L272.3 207.93L272.3 64.25L335.52 64.25Z" id="b5BEV0fP"></path><path d="M321.43 164.25L321.43 175.74L312.23 175.74L312.23 164.25L321.43 164.25Z" id="b7qeoVMiN"></path><path d="M340.12 164.25L340.12 175.74L330.92 175.74L330.92 164.25L340.12 164.25Z" id="a4hhUoHCE"></path><path d="M303.91 31.15C284.57 32.06 274.03 44.25 272.3 67.7C276.51 67.7 297.59 67.7 335.52 67.7C327.34 42.72 316.8 30.54 303.91 31.15Z" id="g3r8wiYW7"></path><path d="M303.91 31.15C284.57 32.06 274.03 44.25 272.3 67.7C276.51 67.7 297.59 67.7 335.52 67.7C327.34 42.72 316.8 30.54 303.91 31.15Z" id="b69bFvRytD"></path><path d="M380.05 64.25L380.05 71.15L239.82 71.15L239.82 64.25L380.05 64.25Z" id="efKYF52d1"></path><path d="M380.05 64.25L380.05 71.15L239.82 71.15L239.82 64.25L380.05 64.25Z" id="a2u4ASXxCi"></path></defs><g><g><g><use xlink:href="#b5BEV0fP" opacity="1" fill="#d58e0b" fill-opacity="1"></use><g><use xlink:href="#b5BEV0fP" opacity="1" fill-opacity="0" stroke="#000000" stroke-width="1" stroke-opacity="0"></use></g></g><g><use xlink:href="#b7qeoVMiN" opacity="1" fill="#2c1441" fill-opacity="1"></use><g><use xlink:href="#b7qeoVMiN" opacity="1" fill-opacity="0" stroke="#000000" stroke-width="1" stroke-opacity="0"></use></g></g><g><use xlink:href="#a4hhUoHCE" opacity="1" fill="#2c1441" fill-opacity="1"></use><g><use xlink:href="#a4hhUoHCE" opacity="1" fill-opacity="0" stroke="#000000" stroke-width="1" stroke-opacity="0"></use></g></g><g><use xlink:href="#g3r8wiYW7" opacity="1" fill="#2d0c48" fill-opacity="1"></use><g><use xlink:href="#g3r8wiYW7" opacity="1" fill-opacity="0" stroke="#000000" stroke-width="1" stroke-opacity="0"></use></g></g><g><use xlink:href="#b69bFvRytD" opacity="1" fill="#000000" fill-opacity="0"></use><g><use xlink:href="#b69bFvRytD" opacity="1" fill-opacity="0" stroke="#000000" stroke-width="1" stroke-opacity="0"></use></g></g><g><use xlink:href="#efKYF52d1" opacity="1" fill="#3e1463" fill-opacity="1"></use><g><use xlink:href="#efKYF52d1" opacity="1" fill-opacity="0" stroke="#000000" stroke-width="1" stroke-opacity="0"></use></g></g><g><use xlink:href="#a2u4ASXxCi" opacity="1" fill="#000000" fill-opacity="0"></use><g><use xlink:href="#a2u4ASXxCi" opacity="1" fill-opacity="0" stroke="#000000" stroke-width="1" stroke-opacity="0"></use></g></g></g></g></svg>