<?xml version="1.0" encoding="UTF-8" standalone="no"?>
<!DOCTYPE svg PUBLIC "-//W3C//DTD SVG 1.1//EN" "http://www.w3.org/Graphics/SVG/1.1/DTD/svg11.dtd">
<svg version="1.1" xmlns="http://www.w3.org/2000/svg" xmlns:xlink="http://www.w3.org/1999/xlink" preserveAspectRatio="xMidYMid meet" viewBox="353.971839436472 349.46000000000004 26.666825328736593 140.4799163990458" width="26.67" height="140.48"><defs><path d="M353.97 444.23C353.97 446.64 354.57 448.25 355.76 449.06C359.44 449.06 362.07 449.17 363.64 449.37C365.22 449.58 367.38 451.24 370.11 454.35L371.79 448.07C370.42 445.05 369.13 442.78 367.9 441.25C366.67 439.71 362.63 438.82 355.76 438.56C354.57 439.94 353.97 441.83 353.97 444.23Z" id="c2uFSvhkD"></path><path d="M380.64 464.79L369.82 464.79L369.82 448.37C374.77 448.47 377.86 448.53 379.1 448.56C379.84 448.57 380.43 449.17 380.44 449.91C380.47 451.89 380.53 456.85 380.64 464.79Z" id="btdT4zUY"></path><path d="M380.39 464.69L380.39 489.94L375.93 489.94L375.93 464.69L380.39 464.69Z" id="a3s5ktirZ"></path><path d="M371.89 448.78L375.5 440.77L375.5 448.78L371.89 448.78Z" id="b23VnswlR1"></path><path d="M371.03 454.54L373.41 454.54L373.41 464.93L371.03 464.93L371.03 454.54Z" id="b3o3P1NUez"></path><path d="M374.54 454.54L376.92 454.54L376.92 464.93L374.54 464.93L374.54 454.54Z" id="c10OzKTys3"></path><path d="M380.64 464.69L378.37 464.69L378.37 450.86L369.27 450.86L369.27 448.36L380.64 448.36L380.64 464.69Z" id="e503IkI7jN"></path><path d="M375.2 464.69L380.64 464.69L380.64 465.84L375.2 465.84L375.2 464.69Z" id="agEoNoyTE"></path><path d="M367.31 451.41C364.21 451.41 361.69 448.9 361.69 445.8C361.69 442.7 364.21 440.19 367.31 440.19C370.4 440.19 372.92 442.7 372.92 445.8C372.92 448.9 370.4 451.41 367.31 451.41Z" id="nQqbPSg9Y"></path><path d="M362.71 441.41L362.71 349.46L371.9 349.46L371.9 441.41L362.71 441.41Z" id="dEWAT9LGT"></path></defs><g><g><g><use xlink:href="#c2uFSvhkD" opacity="1" fill="#8c6815" fill-opacity="1"></use><g><use xlink:href="#c2uFSvhkD" opacity="1" fill-opacity="0" stroke="#ef1fe8" stroke-width="1" stroke-opacity="0"></use></g></g><g><g><use xlink:href="#btdT4zUY" opacity="1" fill="#999999" fill-opacity="1"></use><g><use xlink:href="#btdT4zUY" opacity="1" fill-opacity="0" stroke="#ef1fe8" stroke-width="1" stroke-opacity="0"></use></g></g><g><use xlink:href="#a3s5ktirZ" opacity="1" fill="#9c9c9c" fill-opacity="1"></use><g><use xlink:href="#a3s5ktirZ" opacity="1" fill-opacity="0" stroke="#ef1fe8" stroke-width="1" stroke-opacity="0"></use></g></g><g><use xlink:href="#b23VnswlR1" opacity="1" fill="#999999" fill-opacity="1"></use><g><use xlink:href="#b23VnswlR1" opacity="1" fill-opacity="0" stroke="#ef1fe8" stroke-width="1" stroke-opacity="0"></use></g></g></g><g></g><g><g><use xlink:href="#b3o3P1NUez" opacity="1" fill="#727272" fill-opacity="1"></use><g><use xlink:href="#b3o3P1NUez" opacity="1" fill-opacity="0" stroke="#ef1fe8" stroke-width="1" stroke-opacity="0"></use></g></g><g><use xlink:href="#c10OzKTys3" opacity="1" fill="#727272" fill-opacity="1"></use><g><use xlink:href="#c10OzKTys3" opacity="1" fill-opacity="0" stroke="#ef1fe8" stroke-width="1" stroke-opacity="0"></use></g></g></g><g><use xlink:href="#e503IkI7jN" opacity="1" fill="#787878" fill-opacity="1"></use><g><use xlink:href="#e503IkI7jN" opacity="1" fill-opacity="0" stroke="#ef1fe8" stroke-width="1" stroke-opacity="0"></use></g></g><g><use xlink:href="#agEoNoyTE" opacity="1" fill="#8c8a8a" fill-opacity="1"></use></g></g><g><g><use xlink:href="#nQqbPSg9Y" opacity="1" fill="#d58e0b" fill-opacity="1"></use><g><use xlink:href="#nQqbPSg9Y" opacity="1" fill-opacity="0" stroke="#000000" stroke-width="1" stroke-opacity="0"></use></g></g><g><use xlink:href="#dEWAT9LGT" opacity="1" fill="#290b42" fill-opacity="1"></use><g><use xlink:href="#dEWAT9LGT" opacity="1" fill-opacity="0" stroke="#000000" stroke-width="1" stroke-opacity="0"></use></g></g></g></g></svg>