<?xml version="1.0" encoding="UTF-8" standalone="no"?>
<!DOCTYPE svg PUBLIC "-//W3C//DTD SVG 1.1//EN" "http://www.w3.org/Graphics/SVG/1.1/DTD/svg11.dtd">
<svg version="1.1" xmlns="http://www.w3.org/2000/svg" xmlns:xlink="http://www.w3.org/1999/xlink" preserveAspectRatio="xMidYMid meet" viewBox="172.02974979996156 173.19199592733878 346.9755423801953 407.0134419501502" width="346.98" height="407.01"><defs><path d="M476.2 560.55C475.91 557.45 476.01 554.14 476.5 550.64C476.83 548.25 477.34 545.77 478.03 543.19C480.54 533.84 485.41 523.24 492.64 511.39C488.26 515.92 483.55 521.72 478.53 528.81C473.51 535.89 470.35 546.35 469.03 560.18C475.01 573.28 477.39 573.41 476.2 560.55Z" id="d2cPjbmPYh"></path><path d="M489.23 515.79L488.45 516.98L487.7 518.14L486.97 519.28L486.26 520.4L485.58 521.48L484.92 522.54L484.29 523.58L483.68 524.59L483.1 525.58L482.54 526.53L482 527.47L481.49 528.37L481 529.26L480.54 530.11L480.1 530.94L479.69 531.75L479.3 532.52L478.93 533.28L478.59 534L478.28 534.7L477.98 535.38L477.72 536.03L477.47 536.65L477.25 537.25L476.94 538.15L476.63 539.1L476.31 540.09L475.99 541.11L475.67 542.17L475.35 543.26L475.03 544.38L474.72 545.52L474.41 546.67L474.11 547.85L473.81 549.03L473.52 550.21L473.24 551.41L472.97 552.6L472.71 553.78L472.47 554.96L472.23 556.12L472.02 557.27L471.81 558.4L471.63 559.5L471.46 560.57L471.31 561.62L471.19 562.62L471.08 563.59L471 564.52L470.94 565.39L470.9 566.22L470.88 566.74L470.86 567.24L470.83 567.71L470.79 568.16L470.75 568.58L470.7 568.99L470.64 569.36L470.58 569.71L470.51 570.04L470.44 570.3L470.26 569.91L469.7 568.63L469.12 567.24L468.51 565.74L468.67 564.1L468.85 562.5L469.04 560.92L469.24 559.38L469.46 557.86L469.69 556.37L469.94 554.91L470.2 553.47L470.48 552.07L470.77 550.69L471.07 549.35L471.38 548.03L471.71 546.74L472.06 545.48L472.42 544.25L472.79 543.04L473.18 541.87L473.58 540.72L473.99 539.6L474.42 538.51L474.86 537.45L475.31 536.42L475.78 535.41L476.27 534.44L476.77 533.49L477.28 532.57L477.8 531.68L478.34 530.82L478.89 529.98L479.43 529.15L479.97 528.33L480.51 527.52L481.04 526.73L481.57 525.94L482.1 525.16L482.63 524.4L483.15 523.65L483.68 522.9L484.2 522.17L484.71 521.45L485.23 520.74L485.74 520.04L486.25 519.35L486.76 518.67L487.26 518.01L487.76 517.35L488.26 516.7L488.76 516.07L489.25 515.45L489.74 514.84L490.23 514.23L490.36 514.08L490.03 514.57L489.23 515.79ZM492.46 511.6L492.64 511.39L492.56 511.54L492.46 511.6Z" id="ghfRuKrWu"></path><path d="M265.55 560.09C260.89 558.34 239.61 553.07 236.57 555.8C233.53 558.53 233.93 564.39 234.34 567.71C234.61 569.92 236.1 571.29 238.8 571.81C251.3 571.81 259.11 571.81 262.23 571.81C265.04 571.81 267.39 569.68 267.67 566.89C268.07 563.04 267.36 560.78 265.55 560.09Z" id="c4Sm9voE5"></path><path d="M257.88 569.64L261.79 571.81L238.8 571.81L238.33 571.71L237.89 571.59L237.48 571.45L237.09 571.3L236.73 571.13L236.39 570.94L236.08 570.73L235.79 570.51L235.53 570.27L235.29 570.01L235.08 569.73L234.89 569.44L234.73 569.13L234.6 568.8L234.48 568.45L234.4 568.09L234.34 567.71L234.27 567.1L234.2 566.44L234.14 565.74L234.1 565.02L234.07 564.27L234.06 563.49L234.08 562.71L234.13 561.93L234.21 561.14L234.33 560.37L234.49 559.61L234.69 558.88L234.95 558.17L235.26 557.51L235.63 556.89L236.07 556.31L236.57 555.8L237.29 555.4L238.34 555.15L239.36 555.07L241.66 566.19L246.39 570.06L246.39 570.06L257.88 569.64Z" id="h12aDyasr"></path><path d="M224.22 568.68C224.64 562.89 223.97 556.46 222.2 549.38C219.59 538.97 214.61 527.17 207.24 513.96C211.68 519.02 216.45 525.49 221.55 533.4C226.64 541.3 229.92 552.93 231.38 568.31C225.54 582.84 223.15 582.96 224.22 568.68Z" id="cNqEy8cxF"></path><path d="M210.14 517.41L210.63 518.02L211.13 518.64L211.63 519.28L212.12 519.92L212.63 520.58L213.13 521.24L213.64 521.92L214.15 522.61L214.66 523.31L215.17 524.02L215.69 524.74L216.21 525.47L216.73 526.22L217.26 526.97L217.78 527.74L218.31 528.51L218.85 529.3L219.38 530.1L219.92 530.9L220.46 531.72L221 532.55L221.55 533.4L222.09 534.26L222.61 535.15L223.12 536.06L223.62 537.01L224.1 537.99L224.57 538.99L225.03 540.02L225.47 541.08L225.9 542.17L226.31 543.29L226.71 544.44L227.1 545.61L227.47 546.82L227.83 548.05L228.17 549.31L228.5 550.6L228.82 551.92L229.12 553.27L229.41 554.64L229.68 556.05L229.95 557.48L230.19 558.94L230.43 560.43L230.64 561.95L230.85 563.5L231.04 565.07L231.22 566.68L231.38 568.31L230.77 569.81L230.18 571.2L229.62 572.48L229.45 572.87L229.38 572.61L229.31 572.29L229.25 571.93L229.19 571.56L229.14 571.16L229.1 570.73L229.06 570.28L229.03 569.81L229 569.31L228.98 568.79L228.95 567.97L228.89 567.09L228.81 566.16L228.7 565.2L228.57 564.19L228.43 563.15L228.26 562.07L228.07 560.97L227.87 559.84L227.65 558.69L227.42 557.53L227.17 556.35L226.92 555.17L226.65 553.98L226.37 552.79L226.08 551.6L225.78 550.42L225.48 549.25L225.17 548.09L224.86 546.95L224.54 545.84L224.22 544.75L223.9 543.69L223.58 542.66L223.26 541.67L222.95 540.72L222.63 539.82L222.41 539.22L222.17 538.6L221.9 537.95L221.61 537.28L221.29 536.57L220.95 535.85L220.59 535.1L220.2 534.32L219.78 533.51L219.35 532.68L218.88 531.83L218.4 530.95L217.89 530.04L217.35 529.11L216.79 528.15L216.21 527.16L215.6 526.15L214.96 525.12L214.31 524.05L213.63 522.97L212.92 521.85L212.19 520.72L211.44 519.55L210.66 518.36L209.85 517.14L209.52 516.65L209.65 516.81L210.14 517.41ZM207.32 514.11L207.24 513.96L207.43 514.17L207.32 514.11Z" id="dps76UpVM"></path><path d="M227.69 195.07L251.57 195.07L251.57 573.43L227.69 573.43L227.69 195.07Z" id="aVTmGgGQy"></path><path d="M227.69 364.06L227.69 195.07L251.57 195.07L251.57 364.06L227.69 364.06Z" id="b3f6WYk8eW"></path><path d="M448.71 195.07L472.59 195.07L472.59 573.43L448.71 573.43L448.71 195.07Z" id="a2u3W2vGbk"></path><path d="M448.71 364.06L448.71 195.07L472.59 195.07L472.59 364.06L448.71 364.06Z" id="eglKwSKfJ"></path><path d="M448.71 416.06L448.71 346.57L472.59 346.57L472.59 416.06L448.71 416.06Z" id="n1NohnU6pK"></path><linearGradient id="gradientcENp94hz" gradientUnits="userSpaceOnUse" x1="460.65" y1="417.57" x2="460.65" y2="335.56"><stop style="stop-color: #000000;stop-opacity: 0" offset="0%"></stop><stop style="stop-color: #010000;stop-opacity: 0.22" offset="100%"></stop></linearGradient><path d="M227.69 416.06L227.69 346.57L251.57 346.57L251.57 416.06L227.69 416.06Z" id="d2vdJSTg1Q"></path><linearGradient id="gradientd1dBFSqDNB" gradientUnits="userSpaceOnUse" x1="239.63" y1="417.57" x2="239.63" y2="335.56"><stop style="stop-color: #000000;stop-opacity: 0" offset="0%"></stop><stop style="stop-color: #010000;stop-opacity: 0.22" offset="100%"></stop></linearGradient><path d="M235.84 387.83L235.84 214.94" id="jG4Vm2I4J"></path><path d="M231.94 573.43L231.94 397.17" id="bSuLErGB"></path><path d="M242.84 417.42L242.84 327.08" id="a1w1Nmg7q"></path><path d="M235.84 519.44L235.84 424.43" id="a1crVYcsJ3"></path><path d="M242.84 467.26L242.84 573.43" id="b31BpRnesS"></path><path d="M453.5 573.43L453.5 428.17" id="c6sJTb3ck1"></path><path d="M462.84 307.46L462.84 253.72" id="abN6MPd5t"></path><path d="M455.83 377.55L455.83 307.46" id="c9zIYsqDg"></path><path d="M466.74 443.74L466.74 359.63" id="dY39NJjDU"></path><path d="M458.95 496.7L458.95 400.13" id="d18Z7KCzM"></path><path d="M462.84 561.33L462.84 520.35" id="a1EdDjBZKw"></path><path d="M466.74 467.26L466.74 573.43" id="bKlARzjsF"></path><path d="M179.54 178.26L512.61 173.19L513.29 217.98L180.22 223.05L179.54 178.26Z" id="aa33KXhMF"></path><path d="M172.03 227.22L505.11 223.05L505.67 267.84L172.59 272.02L172.03 227.22Z" id="c3ZRzAcT5"></path><path d="M185.99 274.64L519.01 282.67L518.01 324.04L185 316L185.99 274.64Z" id="b3rgZDasng"></path><path d="M182.29 333.05L515.38 329.89L515.77 371.26L182.68 374.42L182.29 333.05Z" id="bIzDmzWcf"></path><path d="M479.04 180.11L180.03 184.01" id="a10DanCS1a"></path><path d="M488.16 188.57L186.54 191.83" id="d1JPPwpzsx"></path><path d="M512.26 199.65L206.09 199.65" id="evxS0CRsa"></path><path d="M405.42 211.37L180.03 213.98" id="a7JJI1pcQ"></path><path d="M352.66 231.57L172.03 234.83" id="c4QUITIoK"></path><path d="M457.54 238.73L172.03 245.25" id="b8m6l5gC"></path><path d="" id="b1xZmreFxS"></path><path d="" id="b1Q131cIe"></path><path d="M244.52 254.37L505.09 248.51" id="c4jt5psAW"></path><path d="M285.56 260.23L172.03 262.19" id="bhGM7obTG"></path><path d="M345.52 264.14L505.09 260.23" id="a2xcOF6Xm3"></path><path d="M421.06 282.38L186.54 276.52" id="f2YUpAs0RB"></path><path d="M488.16 320L186.54 312.35" id="f5aaS6MlDX"></path><path d="M294.68 288.89L517.47 296.06" id="bAZIvuCb1"></path><path d="M462.75 302.57L184.59 296.06" id="f3Dgstqvwl"></path><path d="M285.56 305.18L515.52 312.35" id="a2oB4ePaqw"></path><path d="M260.81 285.64L212.6 285.64" id="a1VXmZFpWF"></path><path d="M479.04 228.96L427.57 231.57" id="b5AJOXbs2"></path><path d="M427.57 337.75L182.64 337.75" id="a6fgTig7Dm"></path><path d="M305.1 365.76L182.64 367.72" id="alBBnzUEg"></path><path d="M465.36 340.36L515.52 340.36" id="b72dFPtvoc"></path><path d="M490.44 356.64L202.18 361.2" id="ah2FZvziT"></path><path d="M398.91 365.76L515.52 363.81" id="c2OAUqg6lt"></path><path d="M407.38 344.27L301.85 346.57" id="b4BDHFTirQ"></path><path d="M255.6 352.08L180.03 352.08" id="d3znGpUc36"></path><path d="" id="b1uNkuFkSv"></path><path d="M351.14 293.61L352.21 305.17L350.58 305.17L350.18 297.95L349.9 292.69L351.14 293.61Z" id="b2pWL6cSiI"></path><linearGradient id="gradientb6e3nehWlY" gradientUnits="userSpaceOnUse" x1="351.05" y1="292.69" x2="352.1" y2="303.08"><stop style="stop-color: #000000;stop-opacity: 1" offset="0%"></stop><stop style="stop-color: #010000;stop-opacity: 0" offset="100%"></stop></linearGradient><path d="M245.19 299.98C245.19 303.86 242.41 307.02 238.97 307.02C235.54 307.02 232.75 303.86 232.75 299.98C232.75 296.09 235.54 292.94 238.97 292.94C242.41 292.94 245.19 296.09 245.19 299.98Z" id="a1fcFkZ3Dl"></path><path d="M241.81 302.57C239.38 304.13 236.14 303.43 234.57 301.01C233.01 298.58 233.71 295.34 236.14 293.77C238.57 292.21 241.81 292.91 243.37 295.34C244.94 297.76 244.23 301 241.81 302.57Z" id="a9RQCZ9qK"></path><path d="M241.81 302.57L236.14 293.77" id="kjUN3QUEV"></path><path d="M243.82 356.09C243.82 359.97 241.03 363.12 237.6 363.12C234.17 363.12 231.38 359.97 231.38 356.09C231.38 352.2 234.17 349.05 237.6 349.05C241.03 349.05 243.82 352.2 243.82 356.09Z" id="a4ei3NU2DT"></path><path d="M243.82 201.74C243.82 205.63 241.03 208.78 237.6 208.78C234.17 208.78 231.38 205.63 231.38 201.74C231.38 197.86 234.17 194.7 237.6 194.7C241.03 194.7 243.82 197.86 243.82 201.74Z" id="b9cvphov5"></path><path d="M241.93 351.34C243.55 353.72 242.93 356.98 240.54 358.61C238.16 360.23 234.9 359.61 233.27 357.22C231.65 354.84 232.27 351.58 234.66 349.95C237.04 348.33 240.3 348.95 241.93 351.34Z" id="c1wTsBn6C3"></path><path d="M241.93 351.34L233.27 357.22" id="h2f1ifnzbg"></path><path d="M243.82 252.23C243.82 256.12 241.03 259.27 237.6 259.27C234.17 259.27 231.38 256.12 231.38 252.23C231.38 248.35 234.17 245.19 237.6 245.19C241.03 245.19 243.82 248.35 243.82 252.23Z" id="c3CYKOf8m5"></path><path d="M236.68 245.28C239.52 244.77 242.24 246.66 242.75 249.5C243.26 252.34 241.37 255.07 238.53 255.58C235.68 256.09 232.96 254.19 232.45 251.35C231.94 248.51 233.83 245.79 236.68 245.28Z" id="g1GLU5yxsG"></path><path d="M236.68 245.28L238.53 255.58" id="a2noltO7Yh"></path><path d="M242.83 199.94C242.83 202.82 240.49 205.17 237.6 205.17C234.71 205.17 232.37 202.82 232.37 199.94C232.37 197.05 234.71 194.7 237.6 194.7C240.49 194.7 242.83 197.05 242.83 199.94Z" id="d2TtGepzl"></path><path d="M242.83 199.94L232.37 199.94" id="del1XJ7C7"></path><path d="M454.6 296.36C454.6 300.25 457.39 303.4 460.82 303.4C464.26 303.4 467.04 300.25 467.04 296.36C467.04 292.48 464.26 289.33 460.82 289.33C457.39 289.33 454.6 292.48 454.6 296.36Z" id="c5irZCLMsZ"></path><path d="M457.99 298.96C460.42 300.52 463.66 299.82 465.22 297.39C466.79 294.97 466.09 291.72 463.66 290.16C461.23 288.6 457.99 289.3 456.43 291.72C454.86 294.15 455.56 297.39 457.99 298.96Z" id="bew7v7mcN"></path><path d="M457.99 298.96L463.66 290.16" id="a3EezWt4e"></path><path d="M455.98 352.47C455.98 356.36 458.76 359.51 462.2 359.51C465.63 359.51 468.41 356.36 468.41 352.47C468.41 348.59 465.63 345.44 462.2 345.44C458.76 345.44 455.98 348.59 455.98 352.47Z" id="d678MTGdLm"></path><path d="M455.98 198.13C455.98 202.01 458.76 205.17 462.2 205.17C465.63 205.17 468.41 202.01 468.41 198.13C468.41 194.24 465.63 191.09 462.2 191.09C458.76 191.09 455.98 194.24 455.98 198.13Z" id="bnwvZCnlr"></path><path d="M457.87 347.72C456.25 350.11 456.86 353.37 459.25 354.99C461.64 356.62 464.9 356 466.52 353.61C468.15 351.22 467.53 347.97 465.14 346.34C462.75 344.72 459.49 345.34 457.87 347.72Z" id="g4dYy3u0fF"></path><path d="M457.87 347.72L466.52 353.61" id="b1b8Wyubsk"></path><path d="M455.98 248.62C455.98 252.5 458.76 255.66 462.2 255.66C465.63 255.66 468.41 252.5 468.41 248.62C468.41 244.73 465.63 241.58 462.2 241.58C458.76 241.58 455.98 244.73 455.98 248.62Z" id="c1pyL126y"></path><path d="M463.12 241.66C460.28 241.15 457.56 243.05 457.05 245.89C456.54 248.73 458.43 251.45 461.27 251.96C464.11 252.47 466.84 250.58 467.35 247.74C467.86 244.9 465.96 242.17 463.12 241.66Z" id="baSHqckgE"></path><path d="M463.12 241.66L461.27 251.96" id="aDDv5vgu1"></path><path d="M456.96 196.32C456.96 199.21 459.31 201.56 462.2 201.56C465.08 201.56 467.43 199.21 467.43 196.32C467.43 193.44 465.08 191.09 462.2 191.09C459.31 191.09 456.96 193.44 456.96 196.32Z" id="bvEKI9oQH"></path><path d="M456.96 196.32L467.43 196.32" id="bni4ULih"></path><path d="M269.35 272.65L274.97 272.65L274.97 283.66L269.35 283.66L269.35 272.65Z" id="c1nuMvYAUn"></path><path d="M418.89 280.26L418.89 442.08L281.07 439.05L277.75 284.51L418.89 280.26Z" id="iabtJknpB"></path><path d="M277.75 283.73L418.89 280.26L418.89 301.49L278.21 301.49L278.21 301.49L277.75 283.73Z" id="bbibsp9nh"></path><linearGradient id="gradientaqpuZ8EKL" gradientUnits="userSpaceOnUse" x1="348.3" y1="297.49" x2="348.3" y2="283.03"><stop style="stop-color: #000000;stop-opacity: 0" offset="0%"></stop><stop style="stop-color: #010000;stop-opacity: 0.24" offset="100%"></stop></linearGradient><path d="M281.07 439.05L280.59 416.77L418.89 416.77L418.89 442.08L281.07 439.05Z" id="bcluGFqDP"></path><linearGradient id="gradientaI6AGploq" gradientUnits="userSpaceOnUse" x1="349.74" y1="425.66" x2="349.72" y2="440.74"><stop style="stop-color: #000000;stop-opacity: 0" offset="0%"></stop><stop style="stop-color: #010000;stop-opacity: 0.23" offset="100%"></stop></linearGradient><path d="M273.6 457.11L430.51 450.44L430.51 441.95L273.6 438.32L273.6 457.11Z" id="gsZBpfVdk"></path><path d="M273.6 285.51L423.01 281.26L423.01 269.14L273.6 269.14L273.6 285.51Z" id="aKfl75nDE"></path><path d="M273.6 278.81L423.01 276.41L423.01 281.21L273.6 285.51L273.6 278.81Z" id="a18pVZxfPU"></path><linearGradient id="gradientf31n6KMnr" gradientUnits="userSpaceOnUse" x1="348.16" y1="278.57" x2="348.3" y2="283.32"><stop style="stop-color: #000000;stop-opacity: 0" offset="0%"></stop><stop style="stop-color: #010000;stop-opacity: 0.16" offset="100%"></stop></linearGradient><path d="M273.6 285.51L423.01 281.26L423.01 269.14L273.6 269.14L273.6 285.51Z" id="c1BwVHVKpb"></path><linearGradient id="gradiente1VdPeRnbc" gradientUnits="userSpaceOnUse" x1="348.3" y1="269.14" x2="348.3" y2="274.94"><stop style="stop-color: #ffffff;stop-opacity: 0.57" offset="0%"></stop><stop style="stop-color: #ffffff;stop-opacity: 0" offset="100%"></stop></linearGradient><path d="M273.6 457.11L430.51 450.44L430.51 441.95L273.6 438.32L273.6 457.11Z" id="a18e6TJEU9"></path><linearGradient id="gradientc1Tinp18EQ" gradientUnits="userSpaceOnUse" x1="351.42" y1="445.18" x2="352.05" y2="453.5"><stop style="stop-color: #ffffff;stop-opacity: 0.18" offset="0%"></stop><stop style="stop-color: #ffffff;stop-opacity: 0.27" offset="100%"></stop></linearGradient><path d="M273.6 457.11L430.51 450.44L430.51 441.95L273.6 438.32L273.6 457.11Z" id="e4ERlna9W"></path><linearGradient id="gradientg3UzmZyy9b" gradientUnits="userSpaceOnUse" x1="351.86" y1="448.21" x2="352.05" y2="440.32"><stop style="stop-color: #000000;stop-opacity: 0" offset="0%"></stop><stop style="stop-color: #000000;stop-opacity: 0.18" offset="100%"></stop></linearGradient><path d="M269.29 444.6L273.6 444.6L273.6 454.8L269.29 454.8L269.29 444.6Z" id="f1Xjszrmru"></path><path d="M349.9 292.83L358.89 277.21L361.68 279.48L351.09 293.75L351.09 293.75L349.9 292.83Z" id="a1SiJZgjlR"></path><path d="M364.58 275.74C366.44 278.69 365.96 282.34 363.5 283.89C361.05 285.44 357.54 284.3 355.68 281.36C353.82 278.41 354.31 274.76 356.76 273.21C359.22 271.66 362.72 272.79 364.58 275.74Z" id="a3Xf46f21M"></path><path d="M180.23 556.77C189.22 553.25 230.23 542.71 236.09 548.17C241.95 553.64 241.17 565.36 240.39 572C239.87 576.43 237 579.16 231.79 580.21C207.9 580.21 192.96 580.21 186.99 580.21C181.38 580.21 176.69 575.95 176.14 570.37C175.38 562.67 176.75 558.13 180.23 556.77Z" id="e1FKisnkzf"></path><path d="M233.76 547.08L234.71 547.37L235.48 547.73L236.09 548.17L236.59 548.67L237.06 549.2L237.49 549.76L237.89 550.35L238.27 550.96L238.61 551.59L238.92 552.25L239.21 552.92L239.47 553.62L239.71 554.33L239.92 555.06L240.11 555.8L240.27 556.56L240.41 557.32L240.54 558.09L240.64 558.87L240.73 559.65L240.8 560.43L240.85 561.22L240.89 562.01L240.91 562.79L240.92 563.57L240.92 564.35L240.91 565.11L240.88 565.87L240.85 566.62L240.81 567.35L240.76 568.07L240.71 568.78L240.65 569.47L240.59 570.13L240.52 570.78L240.46 571.4L240.39 572L240.34 572.39L240.27 572.77L240.2 573.13L240.11 573.49L240.01 573.85L239.89 574.19L239.77 574.52L239.63 574.85L239.48 575.16L239.32 575.47L239.15 575.77L238.96 576.06L238.76 576.34L238.55 576.61L238.33 576.87L238.1 577.13L237.85 577.37L237.59 577.61L237.32 577.84L237.04 578.06L236.74 578.27L236.43 578.47L236.11 578.66L235.78 578.85L235.44 579.02L235.08 579.19L234.71 579.35L234.33 579.5L233.94 579.64L233.53 579.77L233.12 579.89L232.69 580L232.25 580.11L231.79 580.21L187.49 580.21L195.02 575.87L217.16 576.7L226.27 568.97L230.71 546.69L231.44 546.73L232.67 546.87L232.67 546.87L233.76 547.08Z" id="eCtcTnFML"></path><path d="M478.98 568.5C475.65 567.55 460.44 564.69 458.27 566.17C456.09 567.65 456.38 570.83 456.67 572.63C456.87 573.83 457.93 574.57 459.86 574.86C469.24 574.86 475.11 574.86 477.45 574.86C478.99 574.86 480.29 573.72 480.5 572.2C480.78 570.11 480.28 568.87 478.98 568.5Z" id="a2DG4O68Gx"></path><path d="M473.49 573.68L476.29 574.86L459.86 574.86L459.36 574.77L458.89 574.66L458.47 574.52L458.1 574.37L457.77 574.19L457.48 573.98L457.23 573.76L457.03 573.51L456.87 573.24L456.75 572.95L456.67 572.63L456.6 572.11L456.53 571.53L456.49 570.91L456.48 570.27L456.51 569.61L456.6 568.95L456.76 568.31L456.99 567.7L457.31 567.13L457.73 566.61L458.27 566.17L459.16 565.87L460.26 565.78L461.91 571.81L465.29 573.91L465.29 573.91L473.49 573.68Z" id="bAxLL0ABM"></path></defs><g><g><g><use xlink:href="#d2cPjbmPYh" opacity="1" fill="#ccea8e" fill-opacity="1"></use><g><use xlink:href="#d2cPjbmPYh" opacity="1" fill-opacity="0" stroke="#0f0808" stroke-width="2" stroke-opacity="0"></use></g></g><g><use xlink:href="#ghfRuKrWu" opacity="1" fill="#415b2c" fill-opacity="0.23"></use><g><use xlink:href="#ghfRuKrWu" opacity="1" fill-opacity="0" stroke="#0a0f06" stroke-width="2" stroke-opacity="0"></use></g></g></g><g><g><use xlink:href="#c4Sm9voE5" opacity="1" fill="#8d8d8d" fill-opacity="1"></use><g><use xlink:href="#c4Sm9voE5" opacity="1" fill-opacity="0" stroke="#000000" stroke-width="2" stroke-opacity="0"></use></g></g><g><use xlink:href="#h12aDyasr" opacity="0.23" fill="#000000" fill-opacity="0.51"></use><g><use xlink:href="#h12aDyasr" opacity="0.23" fill-opacity="0" stroke="#000000" stroke-width="2" stroke-opacity="0"></use></g></g></g><g><g><use xlink:href="#cNqEy8cxF" opacity="1" fill="#ccea8e" fill-opacity="1"></use><g><use xlink:href="#cNqEy8cxF" opacity="1" fill-opacity="0" stroke="#0f0808" stroke-width="2" stroke-opacity="0"></use></g></g><g><use xlink:href="#dps76UpVM" opacity="1" fill="#415b2c" fill-opacity="0.23"></use><g><use xlink:href="#dps76UpVM" opacity="1" fill-opacity="0" stroke="#0a0f06" stroke-width="2" stroke-opacity="0"></use></g></g></g><g><g><g><g><g><use xlink:href="#aVTmGgGQy" opacity="1" fill="#92894c" fill-opacity="1"></use></g><g><use xlink:href="#b3f6WYk8eW" opacity="1" fill="#000000" fill-opacity="0.16"></use></g></g><g><g><use xlink:href="#a2u3W2vGbk" opacity="1" fill="#92894c" fill-opacity="1"></use></g><g><use xlink:href="#eglKwSKfJ" opacity="1" fill="#000000" fill-opacity="0.16"></use></g><g><use xlink:href="#n1NohnU6pK" opacity="1" fill="url(#gradientcENp94hz)"></use></g></g></g><g><use xlink:href="#d2vdJSTg1Q" opacity="1" fill="url(#gradientd1dBFSqDNB)"></use></g></g><g><g><g><use xlink:href="#jG4Vm2I4J" opacity="1" fill-opacity="0" stroke="#000000" stroke-width="1" stroke-opacity="0.34"></use></g></g><g><g><use xlink:href="#bSuLErGB" opacity="1" fill-opacity="0" stroke="#000000" stroke-width="1" stroke-opacity="0.34"></use></g></g><g><g><use xlink:href="#a1w1Nmg7q" opacity="1" fill-opacity="0" stroke="#000000" stroke-width="1" stroke-opacity="0.34"></use></g></g><g><g><use xlink:href="#a1crVYcsJ3" opacity="1" fill-opacity="0" stroke="#000000" stroke-width="1" stroke-opacity="0.34"></use></g></g><g><g><use xlink:href="#b31BpRnesS" opacity="1" fill-opacity="0" stroke="#000000" stroke-width="1" stroke-opacity="0.34"></use></g></g><g><g><use xlink:href="#c6sJTb3ck1" opacity="1" fill-opacity="0" stroke="#000000" stroke-width="1" stroke-opacity="0.34"></use></g></g><g><g><use xlink:href="#abN6MPd5t" opacity="1" fill-opacity="0" stroke="#000000" stroke-width="1" stroke-opacity="0.34"></use></g></g><g><g><use xlink:href="#c9zIYsqDg" opacity="1" fill-opacity="0" stroke="#000000" stroke-width="1" stroke-opacity="0.34"></use></g></g><g><g><use xlink:href="#dY39NJjDU" opacity="1" fill-opacity="0" stroke="#000000" stroke-width="1" stroke-opacity="0.34"></use></g></g><g><g><use xlink:href="#d18Z7KCzM" opacity="1" fill-opacity="0" stroke="#000000" stroke-width="1" stroke-opacity="0.34"></use></g></g><g><g><use xlink:href="#a1EdDjBZKw" opacity="1" fill-opacity="0" stroke="#000000" stroke-width="1" stroke-opacity="0.34"></use></g></g><g><g><use xlink:href="#bKlARzjsF" opacity="1" fill-opacity="0" stroke="#000000" stroke-width="1" stroke-opacity="0.34"></use></g></g></g><g><g><use xlink:href="#aa33KXhMF" opacity="1" fill="#cec16c" fill-opacity="1"></use></g><g><use xlink:href="#c3ZRzAcT5" opacity="1" fill="#cec16c" fill-opacity="1"></use></g><g><use xlink:href="#b3rgZDasng" opacity="1" fill="#cec16c" fill-opacity="1"></use></g><g><use xlink:href="#bIzDmzWcf" opacity="1" fill="#cec16c" fill-opacity="1"></use></g></g><g><g><g><use xlink:href="#a10DanCS1a" opacity="1" fill-opacity="0" stroke="#000000" stroke-width="1" stroke-opacity="0.29"></use></g></g><g><g><use xlink:href="#d1JPPwpzsx" opacity="1" fill-opacity="0" stroke="#000000" stroke-width="1" stroke-opacity="0.29"></use></g></g><g><g><use xlink:href="#evxS0CRsa" opacity="1" fill-opacity="0" stroke="#000000" stroke-width="1" stroke-opacity="0.29"></use></g></g><g><g><use xlink:href="#a7JJI1pcQ" opacity="1" fill-opacity="0" stroke="#000000" stroke-width="1" stroke-opacity="0.29"></use></g></g><g><g><use xlink:href="#c4QUITIoK" opacity="1" fill-opacity="0" stroke="#000000" stroke-width="1" stroke-opacity="0.29"></use></g></g><g><g><use xlink:href="#b8m6l5gC" opacity="1" fill-opacity="0" stroke="#000000" stroke-width="1" stroke-opacity="0.29"></use></g></g><g><g><use xlink:href="#b1xZmreFxS" opacity="1" fill-opacity="0" stroke="#000000" stroke-width="1" stroke-opacity="0.29"></use></g></g><g><g><use xlink:href="#b1Q131cIe" opacity="1" fill-opacity="0" stroke="#000000" stroke-width="1" stroke-opacity="0.29"></use></g></g><g><g><use xlink:href="#c4jt5psAW" opacity="1" fill-opacity="0" stroke="#000000" stroke-width="1" stroke-opacity="0.29"></use></g></g><g><g><use xlink:href="#bhGM7obTG" opacity="1" fill-opacity="0" stroke="#000000" stroke-width="1" stroke-opacity="0.29"></use></g></g><g><g><use xlink:href="#a2xcOF6Xm3" opacity="1" fill-opacity="0" stroke="#000000" stroke-width="1" stroke-opacity="0.29"></use></g></g><g><g><use xlink:href="#f2YUpAs0RB" opacity="1" fill-opacity="0" stroke="#000000" stroke-width="1" stroke-opacity="0.29"></use></g></g><g><g><use xlink:href="#f5aaS6MlDX" opacity="1" fill-opacity="0" stroke="#000000" stroke-width="1" stroke-opacity="0.29"></use></g></g><g><g><use xlink:href="#bAZIvuCb1" opacity="1" fill-opacity="0" stroke="#000000" stroke-width="1" stroke-opacity="0.29"></use></g></g><g><g><use xlink:href="#f3Dgstqvwl" opacity="1" fill-opacity="0" stroke="#000000" stroke-width="1" stroke-opacity="0.29"></use></g></g><g><g><use xlink:href="#a2oB4ePaqw" opacity="1" fill-opacity="0" stroke="#000000" stroke-width="1" stroke-opacity="0.29"></use></g></g><g><g><use xlink:href="#a1VXmZFpWF" opacity="1" fill-opacity="0" stroke="#000000" stroke-width="1" stroke-opacity="0.29"></use></g></g><g><g><use xlink:href="#b5AJOXbs2" opacity="1" fill-opacity="0" stroke="#000000" stroke-width="1" stroke-opacity="0.29"></use></g></g><g><g><use xlink:href="#a6fgTig7Dm" opacity="1" fill-opacity="0" stroke="#000000" stroke-width="1" stroke-opacity="0.29"></use></g></g><g><g><use xlink:href="#alBBnzUEg" opacity="1" fill-opacity="0" stroke="#000000" stroke-width="1" stroke-opacity="0.29"></use></g></g><g><g><use xlink:href="#b72dFPtvoc" opacity="1" fill-opacity="0" stroke="#000000" stroke-width="1" stroke-opacity="0.29"></use></g></g><g><g><use xlink:href="#ah2FZvziT" opacity="1" fill-opacity="0" stroke="#000000" stroke-width="1" stroke-opacity="0.29"></use></g></g><g><g><use xlink:href="#c2OAUqg6lt" opacity="1" fill-opacity="0" stroke="#000000" stroke-width="1" stroke-opacity="0.29"></use></g></g><g><g><use xlink:href="#b4BDHFTirQ" opacity="1" fill-opacity="0" stroke="#000000" stroke-width="1" stroke-opacity="0.29"></use></g></g><g><g><use xlink:href="#d3znGpUc36" opacity="1" fill-opacity="0" stroke="#000000" stroke-width="1" stroke-opacity="0.29"></use></g></g></g><g><g><use xlink:href="#b1uNkuFkSv" opacity="1" fill-opacity="0" stroke="#000000" stroke-width="1" stroke-opacity="1"></use></g></g></g><g><use xlink:href="#b2pWL6cSiI" opacity="0.23" fill="url(#gradientb6e3nehWlY)"></use><g><use xlink:href="#b2pWL6cSiI" opacity="0.23" fill-opacity="0" stroke="#000000" stroke-width="2" stroke-opacity="0"></use></g></g><g><g><use xlink:href="#a1fcFkZ3Dl" opacity="1" fill="#000000" fill-opacity="0.11"></use></g><g><g><use xlink:href="#a9RQCZ9qK" opacity="1" fill="#999999" fill-opacity="1"></use></g><g><g><use xlink:href="#kjUN3QUEV" opacity="1" fill-opacity="0" stroke="#000000" stroke-width="3" stroke-opacity="0.39"></use></g></g></g><g><use xlink:href="#a4ei3NU2DT" opacity="1" fill="#000000" fill-opacity="0.11"></use></g><g><use xlink:href="#b9cvphov5" opacity="1" fill="#000000" fill-opacity="0.07"></use></g><g><g><use xlink:href="#c1wTsBn6C3" opacity="1" fill="#999999" fill-opacity="1"></use></g><g><g><use xlink:href="#h2f1ifnzbg" opacity="1" fill-opacity="0" stroke="#000000" stroke-width="3" stroke-opacity="0.39"></use></g></g></g><g><use xlink:href="#c3CYKOf8m5" opacity="1" fill="#000000" fill-opacity="0.11"></use></g><g><g><use xlink:href="#g1GLU5yxsG" opacity="1" fill="#999999" fill-opacity="1"></use></g><g><g><use xlink:href="#a2noltO7Yh" opacity="1" fill-opacity="0" stroke="#000000" stroke-width="3" stroke-opacity="0.39"></use></g></g></g><g><g><use xlink:href="#d2TtGepzl" opacity="1" fill="#999999" fill-opacity="1"></use></g><g><g><use xlink:href="#del1XJ7C7" opacity="1" fill-opacity="0" stroke="#000000" stroke-width="3" stroke-opacity="0.39"></use></g></g></g><g><use xlink:href="#c5irZCLMsZ" opacity="1" fill="#000000" fill-opacity="0.11"></use></g><g><g><use xlink:href="#bew7v7mcN" opacity="1" fill="#999999" fill-opacity="1"></use></g><g><g><use xlink:href="#a3EezWt4e" opacity="1" fill-opacity="0" stroke="#000000" stroke-width="3" stroke-opacity="0.39"></use></g></g></g><g><use xlink:href="#d678MTGdLm" opacity="1" fill="#000000" fill-opacity="0.11"></use></g><g><use xlink:href="#bnwvZCnlr" opacity="1" fill="#000000" fill-opacity="0.11"></use></g><g><g><use xlink:href="#g4dYy3u0fF" opacity="1" fill="#999999" fill-opacity="1"></use></g><g><g><use xlink:href="#b1b8Wyubsk" opacity="1" fill-opacity="0" stroke="#000000" stroke-width="3" stroke-opacity="0.39"></use></g></g></g><g><use xlink:href="#c1pyL126y" opacity="1" fill="#000000" fill-opacity="0.11"></use></g><g><g><use xlink:href="#baSHqckgE" opacity="1" fill="#999999" fill-opacity="1"></use></g><g><g><use xlink:href="#aDDv5vgu1" opacity="1" fill-opacity="0" stroke="#000000" stroke-width="3" stroke-opacity="0.39"></use></g></g></g><g><g><use xlink:href="#bvEKI9oQH" opacity="1" fill="#999999" fill-opacity="1"></use></g><g><g><use xlink:href="#bni4ULih" opacity="1" fill-opacity="0" stroke="#000000" stroke-width="3" stroke-opacity="0.39"></use></g></g></g></g><g><g><use xlink:href="#c1nuMvYAUn" opacity="1" fill="#c3bc8a" fill-opacity="1"></use></g><g><g><use xlink:href="#iabtJknpB" opacity="1" fill="#dbd39e" fill-opacity="1"></use><g><use xlink:href="#iabtJknpB" opacity="1" fill-opacity="0" stroke="#000000" stroke-width="2" stroke-opacity="0"></use></g></g><g><use xlink:href="#bbibsp9nh" opacity="0.38" fill="url(#gradientaqpuZ8EKL)"></use></g><g><use xlink:href="#bcluGFqDP" opacity="0.31" fill="url(#gradientaI6AGploq)"></use></g></g><g><use xlink:href="#gsZBpfVdk" opacity="1" fill="#dbd39e" fill-opacity="1"></use><g><use xlink:href="#gsZBpfVdk" opacity="1" fill-opacity="0" stroke="#000000" stroke-width="2" stroke-opacity="0"></use></g></g><g><use xlink:href="#aKfl75nDE" opacity="1" fill="#dbd39e" fill-opacity="1"></use><g><use xlink:href="#aKfl75nDE" opacity="1" fill-opacity="0" stroke="#000000" stroke-width="2" stroke-opacity="0"></use></g></g><g><use xlink:href="#a18pVZxfPU" opacity="1" fill="url(#gradientf31n6KMnr)"></use><g><use xlink:href="#a18pVZxfPU" opacity="1" fill-opacity="0" stroke="#000000" stroke-width="2" stroke-opacity="0"></use></g></g><g><use xlink:href="#c1BwVHVKpb" opacity="1" fill="url(#gradiente1VdPeRnbc)"></use><g><use xlink:href="#c1BwVHVKpb" opacity="1" fill-opacity="0" stroke="#000000" stroke-width="2" stroke-opacity="0"></use></g></g><g><use xlink:href="#a18e6TJEU9" opacity="1" fill="url(#gradientc1Tinp18EQ)"></use><g><use xlink:href="#a18e6TJEU9" opacity="1" fill-opacity="0" stroke="#000000" stroke-width="2" stroke-opacity="0"></use></g></g><g><use xlink:href="#e4ERlna9W" opacity="1" fill="url(#gradientg3UzmZyy9b)"></use><g><use xlink:href="#e4ERlna9W" opacity="1" fill-opacity="0" stroke="#000000" stroke-width="2" stroke-opacity="0"></use></g></g><g><use xlink:href="#f1Xjszrmru" opacity="1" fill="#c6bf8d" fill-opacity="1"></use></g></g><g><g><use xlink:href="#a1SiJZgjlR" opacity="1" fill="#757575" fill-opacity="1"></use><g><use xlink:href="#a1SiJZgjlR" opacity="1" fill-opacity="0" stroke="#000000" stroke-width="2" stroke-opacity="0"></use></g></g><g><use xlink:href="#a3Xf46f21M" opacity="1" fill="#999999" fill-opacity="1"></use></g></g><g><g><use xlink:href="#e1FKisnkzf" opacity="1" fill="#a4a4a4" fill-opacity="1"></use><g><use xlink:href="#e1FKisnkzf" opacity="1" fill-opacity="0" stroke="#000000" stroke-width="2" stroke-opacity="0"></use></g></g><g><use xlink:href="#eCtcTnFML" opacity="0.23" fill="#000000" fill-opacity="0.51"></use><g><use xlink:href="#eCtcTnFML" opacity="0.23" fill-opacity="0" stroke="#000000" stroke-width="2" stroke-opacity="0"></use></g></g></g><g><g><use xlink:href="#a2DG4O68Gx" opacity="1" fill="#a8a8a8" fill-opacity="1"></use><g><use xlink:href="#a2DG4O68Gx" opacity="1" fill-opacity="0" stroke="#000000" stroke-width="2" stroke-opacity="0"></use></g></g><g><use xlink:href="#bAxLL0ABM" opacity="0.23" fill="#000000" fill-opacity="0.51"></use><g><use xlink:href="#bAxLL0ABM" opacity="0.23" fill-opacity="0" stroke="#000000" stroke-width="2" stroke-opacity="0"></use></g></g></g></g></svg>