<?xml version="1.0" encoding="UTF-8" standalone="no"?>
<!DOCTYPE svg PUBLIC "-//W3C//DTD SVG 1.1//EN" "http://www.w3.org/Graphics/SVG/1.1/DTD/svg11.dtd">
<svg version="1.1" xmlns="http://www.w3.org/2000/svg" xmlns:xlink="http://www.w3.org/1999/xlink" preserveAspectRatio="xMidYMid meet" viewBox="175.06185185185183 453.6635802469136 22.319999999999993 98.17999999999995" width="22.32" height="98.18"><defs><path d="M184.33 550.84L184.33 453.66L193.53 453.66L193.53 550.84L184.33 550.84Z" id="b1B38ueCNo"></path><path d="M197.38 527.42L197.38 551.84L183.33 551.84L183.33 527.42L197.38 527.42Z" id="f6gFVXEII"></path><path d="M197.38 527.42L197.38 551.84L183.33 551.84L183.33 527.42L197.38 527.42Z" id="anUNR6ljJ"></path><path d="M179.2 540.55C176.92 540.55 175.06 538.7 175.06 536.42C175.06 534.14 176.92 532.29 179.2 532.29C181.48 532.29 183.33 534.14 183.33 536.42C183.33 538.7 181.48 540.55 179.2 540.55Z" id="a5yxIKtWZ0"></path><path d="M179.2 538.49C178.06 538.49 177.13 537.56 177.13 536.42C177.13 535.28 178.06 534.35 179.2 534.35C180.34 534.35 181.26 535.28 181.26 536.42C181.26 537.56 180.34 538.49 179.2 538.49Z" id="d8nicTFwMK"></path><path d="M180.01 537.88L183.33 534.65L197.38 534.65L197.38 532.29L183.33 532.29L178.09 535.54L180.01 537.88Z" id="c4bYOIBilf"></path><path d="M180.01 537.88L183.33 534.65L197.38 534.65L197.38 532.29L183.33 532.29L178.09 535.54L180.01 537.88Z" id="b2cNQKt1nI"></path></defs><g><g><g><g><use xlink:href="#b1B38ueCNo" opacity="1" fill="#290b42" fill-opacity="1"></use><g><use xlink:href="#b1B38ueCNo" opacity="1" fill-opacity="0" stroke="#000000" stroke-width="1" stroke-opacity="0"></use></g></g><g><use xlink:href="#f6gFVXEII" opacity="1" fill="#9f672b" fill-opacity="1"></use><g><use xlink:href="#f6gFVXEII" opacity="1" fill-opacity="0" stroke="#000000" stroke-width="1" stroke-opacity="0"></use></g></g><g><use xlink:href="#anUNR6ljJ" opacity="1" fill="#000000" fill-opacity="0"></use><g><use xlink:href="#anUNR6ljJ" opacity="1" fill-opacity="0" stroke="#000000" stroke-width="1" stroke-opacity="0"></use></g></g><g><use xlink:href="#a5yxIKtWZ0" opacity="1" fill="#d58e0b" fill-opacity="1"></use><g><use xlink:href="#a5yxIKtWZ0" opacity="1" fill-opacity="0" stroke="#000000" stroke-width="1" stroke-opacity="0"></use></g></g><g><use xlink:href="#d8nicTFwMK" opacity="1" fill="#785004" fill-opacity="1"></use><g><use xlink:href="#d8nicTFwMK" opacity="1" fill-opacity="0" stroke="#000000" stroke-width="1" stroke-opacity="0"></use></g></g><g><use xlink:href="#c4bYOIBilf" opacity="1" fill="#785004" fill-opacity="1"></use><g><use xlink:href="#c4bYOIBilf" opacity="1" fill-opacity="0" stroke="#000000" stroke-width="1" stroke-opacity="0"></use></g></g><g><use xlink:href="#b2cNQKt1nI" opacity="1" fill="#000000" fill-opacity="0"></use><g><use xlink:href="#b2cNQKt1nI" opacity="1" fill-opacity="0" stroke="#000000" stroke-width="1" stroke-opacity="0"></use></g></g></g></g></g></svg>