<?xml version="1.0" encoding="UTF-8" standalone="no"?>
<!DOCTYPE svg PUBLIC "-//W3C//DTD SVG 1.1//EN" "http://www.w3.org/Graphics/SVG/1.1/DTD/svg11.dtd">
<svg version="1.1" xmlns="http://www.w3.org/2000/svg" xmlns:xlink="http://www.w3.org/1999/xlink" preserveAspectRatio="xMidYMid meet" viewBox="0 0 640 640" width="640" height="640"><defs><path d="M88.17 362.75L147.19 313.33L154.68 322.28L95.66 371.69L88.17 362.75Z" id="binvuyCp3"></path><path d="M105.83 313.33L305.83 313.33L305.83 325L105.83 325L105.83 313.33Z" id="e2dVi9M76"></path><path d="M297.75 325L297.75 621.67L279.99 621.67L279.99 325L297.75 325Z" id="b6Na6Pq0fu"></path><path d="M105.83 621.67L345.83 621.67L345.83 640L105.83 640L105.83 621.67Z" id="g1GHe0wZiv"></path><path d="M105.83 244.08L114.44 244.08L114.44 253.11L105.83 253.11L105.83 244.08Z" id="btNEfUvtP"></path><path d="M105.83 137.63L114.44 137.63L114.44 149.3L105.83 149.3L105.83 137.63Z" id="cESdmnW1C"></path><path d="M105.83 149.3L111.71 149.3L111.71 244.08L105.83 244.08L105.83 149.3Z" id="aeK5kD5c2"></path><path d="M105.83 531.05L114.44 531.05L114.44 540.09L105.83 540.09L105.83 531.05Z" id="b34spJicF9"></path><path d="M105.83 424.61L114.44 424.61L114.44 436.27L105.83 436.27L105.83 424.61Z" id="aaH0Qjwax"></path><path d="M105.83 436.27L111.71 436.27L111.71 531.05L105.83 531.05L105.83 436.27Z" id="d3MhIJaA2I"></path><path d="M0 53.33L105.83 53.33L105.83 640L0 640L0 53.33Z" id="b1bbXqVzx3"></path><path d="M105.83 227.28L299.25 227.28L299.25 236.32L105.83 236.32L105.83 227.28Z" id="c8nQVMIIQ"></path><path d="M132.89 234.82L132.89 313.33L127.01 313.33L127.01 234.82L132.89 234.82Z" id="ggJ5ZhUZv"></path><path d="M169.46 234.82L169.46 313.33L163.58 313.33L163.58 234.82L169.46 234.82Z" id="ggduzLsBZ"></path><path d="M252.75 236.32L252.75 314.82L246.87 314.82L246.87 236.32L252.75 236.32Z" id="b1gksy0zS"></path><path d="M290.65 236.32L290.65 314.82L284.77 314.82L284.77 236.32L290.65 236.32Z" id="b2Pw5SC4Vi"></path><path d="M214.99 234.82L214.99 313.33L209.11 313.33L209.11 234.82L214.99 234.82Z" id="e30K24xflK"></path><path d="M305.96 290.6L314.44 290.6L314.44 327.24L305.96 327.24L305.96 290.6Z" id="a2eUxz6s5K"></path><path d="M305.83 327.24L314.44 327.24L314.44 394.42L305.83 394.42L305.83 327.24Z" id="a2uWGig94F"></path><path d="M47.64 334.95L86.43 334.95L86.43 344.19L47.64 344.19L47.64 334.95Z" id="c3gkeMIMY"></path><path d="M67.03 374.29L105.82 374.29L105.82 383.54L67.03 383.54L67.03 374.29Z" id="blIgbHQUH"></path><path d="M103.71 453.12L142.5 453.12L142.5 462.37L103.71 462.37L103.71 453.12Z" id="ar3VCadh"></path><path d="M85.37 413.78L124.16 413.78L124.16 423.02L85.37 423.02L85.37 413.78Z" id="b3bFBkPrS"></path><path d="M121 490.33L159.79 490.33L159.79 499.58L121 499.58L121 490.33Z" id="an6Kchmsw"></path><path d="M140.39 529.68L179.18 529.68L179.18 538.92L140.39 538.92L140.39 529.68Z" id="a4oFdiuhXT"></path><path d="M178.13 608.51L216.91 608.51L216.91 617.75L178.13 617.75L178.13 608.51Z" id="cyP0UHZbZ"></path><path d="M158.73 569.16L197.52 569.16L197.52 578.41L158.73 578.41L158.73 569.16Z" id="c2bZesg3di"></path><path d="M40.28 328.19L57.34 319.17L205.68 634.1L188.62 643.13L40.28 328.19Z" id="bMl68fS8x"></path><path d="M41.25 371.69L41.25 320L52.92 320L52.92 371.69L41.25 371.69Z" id="hqvu6qtNW"></path><path d="M-4.41 371.69L-4.41 320L7.25 320L7.25 371.69L-4.41 371.69Z" id="ahoDx8cld"></path><path d="M-14.23 319.17L62.74 319.17L62.74 330.83L-14.23 330.83L-14.23 319.17Z" id="ai8G3GaT5"></path><path d="M-104.41 314.17L95.59 314.17L95.59 325.83L-104.41 325.83L-104.41 314.17Z" id="b2FLAnH54a"></path><path d="M-2.94 41.06L127.01 41.06L127.01 53.33L-2.94 53.33L-2.94 41.06Z" id="k277WaRb0P"></path></defs><g><g><g><use xlink:href="#binvuyCp3" opacity="1" fill="#625f28" fill-opacity="1"></use></g><g><use xlink:href="#e2dVi9M76" opacity="1" fill="#726e2e" fill-opacity="1"></use></g><g><use xlink:href="#b6Na6Pq0fu" opacity="1" fill="#6c592b" fill-opacity="1"></use><g><use xlink:href="#b6Na6Pq0fu" opacity="1" fill-opacity="0" stroke="#000000" stroke-width="1" stroke-opacity="0"></use></g></g><g><use xlink:href="#g1GHe0wZiv" opacity="1" fill="#726e2e" fill-opacity="1"></use></g><g><use xlink:href="#btNEfUvtP" opacity="1" fill="#726e2e" fill-opacity="1"></use></g><g><use xlink:href="#cESdmnW1C" opacity="1" fill="#726e2e" fill-opacity="1"></use></g><g><use xlink:href="#aeK5kD5c2" opacity="1" fill="#898989" fill-opacity="1"></use></g><g><use xlink:href="#b34spJicF9" opacity="1" fill="#726e2e" fill-opacity="1"></use></g><g><use xlink:href="#aaH0Qjwax" opacity="1" fill="#726e2e" fill-opacity="1"></use></g><g><use xlink:href="#d3MhIJaA2I" opacity="1" fill="#898989" fill-opacity="1"></use></g><g><use xlink:href="#b1bbXqVzx3" opacity="1" fill="#c5ba6f" fill-opacity="1"></use></g><g><use xlink:href="#c8nQVMIIQ" opacity="1" fill="#726e2e" fill-opacity="1"></use></g><g><use xlink:href="#ggJ5ZhUZv" opacity="1" fill="#726e2e" fill-opacity="1"></use></g><g><use xlink:href="#ggduzLsBZ" opacity="1" fill="#726e2e" fill-opacity="1"></use></g><g><use xlink:href="#b1gksy0zS" opacity="1" fill="#726e2e" fill-opacity="1"></use></g><g><use xlink:href="#b2Pw5SC4Vi" opacity="1" fill="#726e2e" fill-opacity="1"></use></g><g><use xlink:href="#e30K24xflK" opacity="1" fill="#726e2e" fill-opacity="1"></use></g><g><use xlink:href="#a2eUxz6s5K" opacity="1" fill="#98944d" fill-opacity="1"></use><g><use xlink:href="#a2eUxz6s5K" opacity="1" fill-opacity="0" stroke="#a1782e" stroke-width="1" stroke-opacity="0"></use></g></g><g><use xlink:href="#a2uWGig94F" opacity="1" fill="#807d46" fill-opacity="1"></use><g><use xlink:href="#a2uWGig94F" opacity="1" fill-opacity="0" stroke="#a1782e" stroke-width="1" stroke-opacity="0"></use></g></g><g><g><g><use xlink:href="#c3gkeMIMY" opacity="1" fill="#72703e" fill-opacity="1"></use></g><g><use xlink:href="#blIgbHQUH" opacity="1" fill="#72703e" fill-opacity="1"></use></g><g><use xlink:href="#ar3VCadh" opacity="1" fill="#72703e" fill-opacity="1"></use></g><g><use xlink:href="#b3bFBkPrS" opacity="1" fill="#72703e" fill-opacity="1"></use></g><g><use xlink:href="#an6Kchmsw" opacity="1" fill="#72703e" fill-opacity="1"></use></g><g><use xlink:href="#a4oFdiuhXT" opacity="1" fill="#72703e" fill-opacity="1"></use></g><g><use xlink:href="#cyP0UHZbZ" opacity="1" fill="#72703e" fill-opacity="1"></use></g><g><use xlink:href="#c2bZesg3di" opacity="1" fill="#72703e" fill-opacity="1"></use></g></g><g><use xlink:href="#bMl68fS8x" opacity="1" fill="#807d46" fill-opacity="1"></use></g></g><g><use xlink:href="#hqvu6qtNW" opacity="1" fill="#625f28" fill-opacity="1"></use></g><g><use xlink:href="#ahoDx8cld" opacity="1" fill="#625f28" fill-opacity="1"></use></g><g><use xlink:href="#ai8G3GaT5" opacity="1" fill="#625f28" fill-opacity="1"></use></g><g><use xlink:href="#b2FLAnH54a" opacity="1" fill="#726e2e" fill-opacity="1"></use></g><g><use xlink:href="#k277WaRb0P" opacity="1" fill="#ce7910" fill-opacity="1"></use></g></g></g></svg>