<?xml version="1.0" encoding="UTF-8" standalone="no"?>
<!DOCTYPE svg PUBLIC "-//W3C//DTD SVG 1.1//EN" "http://www.w3.org/Graphics/SVG/1.1/DTD/svg11.dtd">
<svg version="1.1" xmlns="http://www.w3.org/2000/svg" xmlns:xlink="http://www.w3.org/1999/xlink" preserveAspectRatio="xMidYMid meet" viewBox="379.5926173147221 408.55045861423525 146.70927181227256 234.58014475109678" width="146.71" height="234.58"><defs><path d="M386.47 441.77L393.34 447.88L390 450.26L386.66 452.64L383.12 444.15L379.59 435.65L386.47 441.77Z" id="eCmXI7nCR"></path><path d="M454.75 535.26C426.31 540.43 409.1 543.64 403.12 544.87C394.16 546.73 387.09 480.09 385.25 458.8C383.41 437.51 397.51 434.81 402.02 449.21C406.52 463.61 397.1 528.04 404.73 533.3C409.81 536.81 424.04 535.58 447.42 529.61L454.75 535.26Z" id="a8F7tHaFd"></path><path d="M435.85 514.67L439.33 511.68L440.33 515.66L441.33 519.64L436.85 518.65L432.37 517.66L435.85 514.67Z" id="a4z7HYLdJi"></path><path d="M498.55 483.78L505.53 486.97L502.88 490.11L500.24 493.25L495.91 486.92L491.58 480.59L498.55 483.78Z" id="a1IVakNjo8"></path><path d="M458.69 643.13L462.42 468.5C463.42 432.19 458.82 414.03 448.62 414.03C438.42 414.03 433.82 421.24 434.81 435.67L437.8 643.13L458.69 643.13Z" id="aNFm9ZSbo"></path><path d="M445.33 565.88C451.17 555.33 477.82 564.7 489.48 567.67C497.25 569.66 503.2 564.26 507.31 551.49C518.39 483.44 520.72 449 514.3 448.2C504.68 446.98 501.33 461.61 499.19 478.64C497.04 495.67 503.66 544.64 495.88 552.68C490.69 558.05 474.99 557.32 448.77 550.51C442.58 567.79 441.43 572.91 445.33 565.88Z" id="h21rCobN7k"></path><path d="M440.6 415.59L446.52 422.64L442.87 424.51L439.21 426.38L436.95 417.47L434.68 408.55L440.6 415.59Z" id="aIsp0CcL4"></path><path d="M465.62 458.72L459.74 465.8L457.24 462.53L454.75 459.27L463.13 455.46L471.5 451.65L465.62 458.72Z" id="f1tWDhuZic"></path><path d="M404.4 466.78L400.65 471.38L398.98 469.19L397.3 467L402.73 464.59L408.15 462.18L404.4 466.78Z" id="b4JCdvNv3"></path><path d="M510.17 548.12L506.42 552.72L504.75 550.53L503.07 548.34L508.5 545.93L513.92 543.53L510.17 548.12Z" id="i7TdHEkb4b"></path><path d="M521.4 471.71L516.49 475.06L515.51 472.48L514.53 469.9L520.42 469.14L526.3 468.37L521.4 471.71Z" id="b1644ZQ5sR"></path></defs><g><g><g><use xlink:href="#eCmXI7nCR" opacity="1" fill="#575d4b" fill-opacity="1"></use></g><g><use xlink:href="#a8F7tHaFd" opacity="1" fill="#4ba71a" fill-opacity="1"></use><g><use xlink:href="#a8F7tHaFd" opacity="1" fill-opacity="0" stroke="#a1782e" stroke-width="1" stroke-opacity="0"></use></g></g><g><use xlink:href="#a4z7HYLdJi" opacity="1" fill="#575d4b" fill-opacity="1"></use></g><g><use xlink:href="#a1IVakNjo8" opacity="1" fill="#575d4b" fill-opacity="1"></use></g><g><use xlink:href="#aNFm9ZSbo" opacity="1" fill="#5dcc20" fill-opacity="1"></use><g><use xlink:href="#aNFm9ZSbo" opacity="1" fill-opacity="0" stroke="#a1782e" stroke-width="1" stroke-opacity="0"></use></g></g><g><use xlink:href="#h21rCobN7k" opacity="1" fill="#54b91d" fill-opacity="1"></use><g><use xlink:href="#h21rCobN7k" opacity="1" fill-opacity="0" stroke="#a1782e" stroke-width="1" stroke-opacity="0"></use></g></g><g><use xlink:href="#aIsp0CcL4" opacity="1" fill="#575d4b" fill-opacity="1"></use></g><g><use xlink:href="#f1tWDhuZic" opacity="1" fill="#575d4b" fill-opacity="1"></use></g><g><use xlink:href="#b4JCdvNv3" opacity="1" fill="#575d4b" fill-opacity="1"></use></g><g><use xlink:href="#i7TdHEkb4b" opacity="1" fill="#575d4b" fill-opacity="1"></use></g><g><use xlink:href="#b1644ZQ5sR" opacity="1" fill="#575d4b" fill-opacity="1"></use></g></g></g></svg>