<?xml version="1.0" encoding="UTF-8" standalone="no"?>
<!DOCTYPE svg PUBLIC "-//W3C//DTD SVG 1.1//EN" "http://www.w3.org/Graphics/SVG/1.1/DTD/svg11.dtd">
<svg version="1.1" xmlns="http://www.w3.org/2000/svg" xmlns:xlink="http://www.w3.org/1999/xlink" preserveAspectRatio="xMidYMid meet" viewBox="335.8519904917489 105.84648540400914 144.94857834240798 263.51724137931024" width="144.95" height="263.52"><defs><path d="M462.29 115.19C475.32 178.79 481.06 223.62 479.53 249.67C478 275.73 472.25 312.51 462.29 360.02L355.39 360.02C342.37 313.28 335.85 275.73 335.85 247.38C335.85 219.02 342.37 174.96 355.39 115.19" id="erD8Bw5Ff"></path><path d="" id="aXiaGprm"></path><path d="M382.98 360.02C374.55 304.85 369.95 267.3 369.19 247.38C368.42 227.45 371.87 183.39 379.53 115.19" id="aoMEEDjzT"></path><path d="M352.47 157.06L354.37 169.91L356.42 182.22L358.63 193.99L360.99 205.21L363.5 215.9L366.17 226.04L368.99 235.64L371.96 244.7L375.09 253.21L378.37 261.19L381.81 268.62L385.4 275.51L389.14 281.86L393.04 287.67L397.09 292.94L401.3 297.66L405.66 301.85L410.17 305.49L414.83 308.59L419.65 311.15L424.63 313.16L429.75 314.64L435.03 315.57L440.47 315.96L446.06 315.81L451.8 315.12L457.7 313.89L463.75 312.11L469.95 309.79L472.11 308.82L471.72 311.1L471.2 314.08L470.67 317.1L470.12 320.16L469.55 323.26L468.97 326.4L468.37 329.58L467.76 332.8L467.13 336.06L466.49 339.36L465.83 342.71L465.15 346.09L464.46 349.51L463.75 352.97L463.03 356.48L462.29 360.02L355.39 360.02L354.43 356.53L353.49 353.08L352.57 349.66L351.68 346.27L350.81 342.92L349.97 339.61L349.15 336.32L348.36 333.08L347.59 329.86L346.84 326.69L346.12 323.54L345.43 320.43L344.76 317.36L344.11 314.32L343.48 311.31L342.89 308.34L342.31 305.4L341.76 302.5L341.24 299.63L340.74 296.8L340.26 294L339.81 291.24L339.38 288.51L338.98 285.81L338.6 283.15L338.25 280.52L337.92 277.93L337.61 275.38L337.33 272.85L337.07 270.36L336.84 267.91L336.63 265.49L336.45 263.11L336.29 260.75L336.16 258.44L336.05 256.16L335.96 253.91L335.9 251.7L335.86 249.52L335.85 247.38L335.86 245.22L335.9 243L335.96 240.73L336.05 238.4L336.16 236.01L336.29 233.56L336.45 231.05L336.63 228.48L336.84 225.85L337.07 223.17L337.33 220.42L337.61 217.62L337.92 214.75L338.25 211.83L338.6 208.85L338.98 205.81L339.38 202.71L339.81 199.56L340.26 196.34L340.74 193.06L341.24 189.73L341.76 186.34L342.31 182.89L342.89 179.38L343.48 175.81L344.11 172.18L344.76 168.49L345.43 164.74L346.12 160.94L346.84 157.07L347.59 153.15L348.36 149.17L349.15 145.13L349.97 141.03L350.26 139.6L350.72 143.67L352.47 157.06Z" id="b4Zsr0Irt"></path><path d="M436.21 360.02C444.64 304.85 449.23 267.3 450 247.38C450.77 227.45 447.32 183.39 439.66 115.19" id="a1ismr7GDV"></path><path d="M408.84 360.02L408.84 115.19" id="a5ApMWGe9U"></path><path d="M335.85 186.46L479.77 186.46L479.77 194.5L335.85 194.5L335.85 186.46Z" id="h26wbdIWPt"></path><path d="M336.88 289.9L480.8 289.9L480.8 297.95L336.88 297.95L336.88 289.9Z" id="c1MThG8H9A"></path><path d="M474.87 297.26L473.21 297.04L471.44 296.82L469.6 296.6L467.7 296.38L465.74 296.16L463.71 295.94L461.62 295.72L459.46 295.51L457.24 295.3L454.95 295.09L452.6 294.87L450.19 294.67L447.71 294.46L445.17 294.25L442.56 294.05L439.89 293.84L437.16 293.64L434.36 293.44L431.49 293.24L428.57 293.05L425.57 292.85L422.52 292.66L419.4 292.46L416.21 292.27L412.96 292.08L409.65 291.89L406.27 291.71L402.83 291.52L399.32 291.34L395.75 291.15L392.12 290.97L388.42 290.79L384.65 290.61L380.83 290.44L376.94 290.26L372.98 290.09L368.96 289.91L480.68 289.9L480.8 289.96L480.8 297.26L480.8 297.26L474.87 297.26Z" id="azhiTQXHu"></path><path d="M473.84 193.81L472.18 193.59L470.41 193.37L468.57 193.15L466.67 192.93L464.71 192.71L462.68 192.49L460.59 192.28L458.43 192.06L456.21 191.85L453.92 191.64L451.58 191.43L449.16 191.22L446.68 191.01L444.14 190.8L441.53 190.6L438.86 190.4L436.13 190.2L433.33 189.99L430.46 189.8L427.54 189.6L424.54 189.4L421.49 189.21L418.37 189.02L415.18 188.82L411.93 188.63L408.62 188.45L405.24 188.26L401.8 188.07L398.29 187.89L394.72 187.7L391.09 187.52L387.39 187.34L383.63 187.16L379.8 186.99L375.91 186.81L371.95 186.64L367.93 186.47L479.65 186.46L479.77 186.51L479.77 193.81L479.77 193.81L473.84 193.81Z" id="e3Igkv90S"></path><path d="M463.37 122.57L462.66 122.36L461.77 122.13L460.83 121.9L459.84 121.68L458.8 121.47L457.7 121.27L456.56 121.07L455.37 120.88L454.12 120.7L452.83 120.52L451.48 120.36L450.09 120.2L448.64 120.05L447.14 119.9L445.59 119.76L443.99 119.63L442.34 119.51L440.64 119.4L438.89 119.29L437.09 119.19L435.23 119.1L433.33 119.01L431.38 118.93L429.37 118.86L427.31 118.8L425.21 118.74L423.05 118.69L420.84 118.65L418.58 118.62L416.27 118.59L413.91 118.58L411.5 118.56L409.03 118.56L406.57 118.57L404.15 118.6L401.78 118.64L399.46 118.7L397.18 118.77L394.95 118.87L392.76 118.98L390.63 119.11L388.53 119.25L386.49 119.41L384.49 119.59L382.54 119.79L380.64 120L378.78 120.23L376.97 120.48L375.2 120.75L373.48 121.03L371.81 121.33L370.19 121.64L368.61 121.97L367.08 122.32L365.6 122.69L364.16 123.08L362.77 123.48L361.42 123.9L360.13 124.33L358.87 124.78L357.67 125.25L356.51 125.74L355.4 126.24L354.34 126.76L353.32 127.3L352.35 127.86L352.26 127.91L353.07 124.04L354.01 119.64L354.95 115.32L355.59 115.19L461.88 115.19L462.84 119.93L463.37 122.57Z" id="aMaGjJjDS"></path><path d="M355.39 105.85L462.29 105.85L462.29 116.19L355.39 116.19L355.39 105.85Z" id="mIb4USE0R"></path><path d="M355.39 359.02L462.29 359.02L462.29 369.36L355.39 369.36L355.39 359.02Z" id="dCvtFFaNB"></path></defs><g><g><g><use xlink:href="#erD8Bw5Ff" opacity="1" fill="#bc9f5d" fill-opacity="1"></use><g><use xlink:href="#erD8Bw5Ff" opacity="1" fill-opacity="0" stroke="#030303" stroke-width="1" stroke-opacity="0"></use></g></g><g><g><use xlink:href="#aXiaGprm" opacity="1" fill-opacity="0" stroke="#000000" stroke-width="1" stroke-opacity="1"></use></g></g><g><g><use xlink:href="#aoMEEDjzT" opacity="1" fill-opacity="0" stroke="#030101" stroke-width="1" stroke-opacity="1"></use></g></g><g><use xlink:href="#b4Zsr0Irt" opacity="1" fill="#000000" fill-opacity="0.22"></use><g><use xlink:href="#b4Zsr0Irt" opacity="1" fill-opacity="0" stroke="#030101" stroke-width="1" stroke-opacity="0"></use></g></g><g><g><use xlink:href="#a1ismr7GDV" opacity="1" fill-opacity="0" stroke="#030101" stroke-width="1" stroke-opacity="1"></use></g></g><g><g><use xlink:href="#a5ApMWGe9U" opacity="1" fill-opacity="0" stroke="#030101" stroke-width="1" stroke-opacity="1"></use></g></g><g><use xlink:href="#h26wbdIWPt" opacity="1" fill="#605e56" fill-opacity="1"></use></g><g><use xlink:href="#c1MThG8H9A" opacity="1" fill="#605e56" fill-opacity="1"></use></g><g><use xlink:href="#azhiTQXHu" opacity="1" fill="#ffffff" fill-opacity="0.56"></use><g><use xlink:href="#azhiTQXHu" opacity="1" fill-opacity="0" stroke="#030101" stroke-width="1" stroke-opacity="0"></use></g></g><g><use xlink:href="#e3Igkv90S" opacity="1" fill="#ffffff" fill-opacity="0.56"></use><g><use xlink:href="#e3Igkv90S" opacity="1" fill-opacity="0" stroke="#030101" stroke-width="1" stroke-opacity="0"></use></g></g><g><use xlink:href="#aMaGjJjDS" opacity="1" fill="#000000" fill-opacity="0.17"></use><g><use xlink:href="#aMaGjJjDS" opacity="1" fill-opacity="0" stroke="#030202" stroke-width="1" stroke-opacity="0"></use></g></g><g><g><use xlink:href="#mIb4USE0R" opacity="1" fill="#846e32" fill-opacity="1"></use></g><g><use xlink:href="#dCvtFFaNB" opacity="1" fill="#846e32" fill-opacity="1"></use></g></g></g></g></svg>