<?xml version="1.0" encoding="UTF-8" standalone="no"?>
<!DOCTYPE svg PUBLIC "-//W3C//DTD SVG 1.1//EN" "http://www.w3.org/Graphics/SVG/1.1/DTD/svg11.dtd">
<svg version="1.1" xmlns="http://www.w3.org/2000/svg" xmlns:xlink="http://www.w3.org/1999/xlink" preserveAspectRatio="xMidYMid meet" viewBox="407.9684705291059 151.73452528976992 81.40495867768595 76.25437343827923" width="81.4" height="76.25"><defs><path d="M457.97 170.03L462.1 165.89L467.47 165.07L472.02 162.59" id="mbFH7dIOU"></path><path d="M454.66 204.32L455.49 209.7L456.32 215.07L456.32 221.27L459.21 226.23L465.41 226.64" id="f1wC8px3e2"></path><path d="M422.43 201.43L417.06 204.74L415.82 210.11L412.93 214.24" id="a1EGFjbTsH"></path><path d="M435.11 193.34L429.74 194.24L424.38 195.13L418.19 195.21L413.26 198.16L412.93 204.36" id="fiHATEm7"></path><path d="M453.52 179.06L449.34 175.39" id="a48Tp1qCyn"></path><path d="M476.15 176.64L481.52 175.4L486.89 174.57" id="a14Q20LMS"></path><path d="M424.52 158.14C418.96 161.84 404.3 191.26 419.11 207.46C433.93 223.67 457.54 220.43 466.33 218.57C475.13 216.72 489.48 197.28 485.24 178.3C482.42 165.64 471.16 157.07 451.46 152.59C437.2 153.82 428.22 155.67 424.52 158.14Z" id="dcVvmCJ5M"></path><path d="M437.01 156.13L436.73 157.08L436.46 158.02L436.2 158.95L435.96 159.87L435.73 160.79L435.51 161.69L435.3 162.59L435.1 163.49L434.92 164.37L434.75 165.25L434.59 166.12L434.44 166.98L434.31 167.83L434.18 168.68L434.07 169.52L433.97 170.35L433.88 171.17L433.81 171.98L433.74 172.79L433.69 173.59L433.65 174.38L433.62 175.17L433.61 175.94L433.6 176.71L433.61 177.47L433.63 178.22L433.66 178.97L433.71 179.71L433.76 180.44L433.83 181.16L433.91 181.87L434 182.58L434.16 183.61L434.33 184.59L434.53 185.54L434.74 186.44L434.98 187.3L435.23 188.12L435.49 188.9L435.77 189.65L436.07 190.37L436.38 191.05L436.7 191.7L437.04 192.32L437.39 192.92L437.75 193.48L438.12 194.03L438.5 194.54L438.89 195.04L439.28 195.52L439.69 195.98L440.1 196.42L440.52 196.85L440.95 197.26L441.38 197.66L441.81 198.05L442.25 198.43L442.69 198.8L443.13 199.17L443.58 199.53L444.02 199.89L444.47 200.24L444.91 200.6L445.36 200.96L445.8 201.32L446.24 201.68L446.67 202.06L447.1 202.44L447.53 202.83L447.95 203.23L448.36 203.64L448.77 204.07L449.17 204.52L449.56 205.01L449.95 205.53L450.33 206.08L450.71 206.67L451.09 207.28L451.46 207.91L451.82 208.57L452.19 209.24L452.55 209.93L452.91 210.64L453.27 211.36L453.62 212.09L453.98 212.82L454.33 213.56L454.68 214.3L455.04 215.04L455.39 215.78L455.75 216.51L456.1 217.24L456.46 217.95L456.82 218.65L457.18 219.34L457.54 220.01L457.55 220.03L457.32 220.05L456.2 220.13L455.05 220.2L453.87 220.25L452.66 220.28L451.43 220.29L450.18 220.28L448.9 220.24L447.61 220.17L446.3 220.07L444.98 219.94L443.64 219.77L442.3 219.57L440.95 219.33L439.6 219.06L438.24 218.74L436.88 218.37L435.53 217.96L434.18 217.51L432.84 217L431.5 216.44L430.18 215.83L428.86 215.17L427.57 214.44L426.29 213.66L425.03 212.82L423.79 211.91L422.58 210.94L421.39 209.9L420.24 208.79L419.11 207.61L418.05 206.37L417.1 205.09L416.26 203.76L415.51 202.39L414.86 200.99L414.3 199.56L413.83 198.1L413.45 196.62L413.15 195.11L412.92 193.59L412.77 192.06L412.69 190.51L412.68 188.96L412.73 187.41L412.84 185.86L413.01 184.32L413.23 182.78L413.5 181.26L413.82 179.75L414.17 178.26L414.57 176.8L415 175.36L415.46 173.96L415.95 172.58L416.46 171.25L416.99 169.96L417.54 168.71L418.1 167.51L418.67 166.37L419.24 165.28L419.82 164.25L420.4 163.28L420.97 162.39L421.53 161.56L422.08 160.81L422.61 160.13L423.13 159.54L423.62 159.03L424.08 158.61L424.51 158.29L424.8 158.1L425.11 157.92L425.44 157.74L425.78 157.57L426.15 157.39L426.54 157.22L426.94 157.05L427.37 156.88L427.82 156.72L428.28 156.55L428.77 156.39L429.27 156.23L429.8 156.08L430.34 155.92L430.91 155.77L431.49 155.62L432.1 155.48L432.72 155.33L433.36 155.19L434.03 155.05L434.71 154.91L435.42 154.78L436.14 154.64L436.88 154.51L437.54 154.4L437.3 155.18L437.01 156.13Z" id="b3lY6ZRTfm"></path><path d="M419.13 176.64L413.75 176.23L407.97 174.99" id="b9PSk8RYO"></path><path d="M440.61 185.73L436.89 189.86" id="ahuxeJe2x"></path><path d="M474.08 191.1L479.46 195.65L484.83 196.89L489.37 199.37" id="a2ZjtBRfux"></path><path d="M456.22 168.49L456.9 162.69L460.6 158.71L462.63 153.94" id="a4tHGPkrdk"></path><path d="M437.59 161.08L434.22 155.75L428.83 154.58L424.67 151.73" id="a81Xgax5Xj"></path><path d="M448.57 212.6L444.09 218.03L442.92 223.41L440.5 227.99" id="c6OkZp3Xl"></path></defs><g><g><g><g><g><use xlink:href="#mbFH7dIOU" opacity="1" fill-opacity="0" stroke="#c09c4a" stroke-width="2" stroke-opacity="1"></use></g></g><g><g><use xlink:href="#f1wC8px3e2" opacity="1" fill-opacity="0" stroke="#c09c4a" stroke-width="2" stroke-opacity="1"></use></g></g><g><g><g><use xlink:href="#a1EGFjbTsH" opacity="1" fill-opacity="0" stroke="#c09c4a" stroke-width="2" stroke-opacity="1"></use></g></g><g><g><use xlink:href="#fiHATEm7" opacity="1" fill-opacity="0" stroke="#c09c4a" stroke-width="2" stroke-opacity="1"></use></g></g></g></g><g><g><use xlink:href="#a48Tp1qCyn" opacity="1" fill-opacity="0" stroke="#c09c4a" stroke-width="2" stroke-opacity="1"></use></g></g><g><g><use xlink:href="#a14Q20LMS" opacity="1" fill-opacity="0" stroke="#c09c4a" stroke-width="2" stroke-opacity="1"></use></g></g><g><g><use xlink:href="#dcVvmCJ5M" opacity="1" fill="#e9d29f" fill-opacity="1"></use><g><use xlink:href="#dcVvmCJ5M" opacity="1" fill-opacity="0" stroke="#a1782e" stroke-width="1" stroke-opacity="0"></use></g></g><g><use xlink:href="#b3lY6ZRTfm" opacity="1" fill="#000000" fill-opacity="0.09"></use><g><use xlink:href="#b3lY6ZRTfm" opacity="1" fill-opacity="0" stroke="#a1782e" stroke-width="1" stroke-opacity="0"></use></g></g></g><g><g><use xlink:href="#b9PSk8RYO" opacity="1" fill-opacity="0" stroke="#c09c4a" stroke-width="2" stroke-opacity="1"></use></g></g><g><g><use xlink:href="#ahuxeJe2x" opacity="1" fill-opacity="0" stroke="#c09c4a" stroke-width="2" stroke-opacity="1"></use></g></g><g><g><use xlink:href="#a2ZjtBRfux" opacity="1" fill-opacity="0" stroke="#c09c4a" stroke-width="2" stroke-opacity="1"></use></g></g><g><g><use xlink:href="#a4tHGPkrdk" opacity="1" fill-opacity="0" stroke="#c09c4a" stroke-width="2" stroke-opacity="1"></use></g></g><g><g><use xlink:href="#a81Xgax5Xj" opacity="1" fill-opacity="0" stroke="#c09c4a" stroke-width="2" stroke-opacity="1"></use></g></g><g><g><use xlink:href="#c6OkZp3Xl" opacity="1" fill-opacity="0" stroke="#c09c4a" stroke-width="2" stroke-opacity="1"></use></g></g></g></g></svg>